<mxfile host="app.diagrams.net" modified="2024-04-07T12:10:13.866Z" agent="Mozilla/5.0 (Windows NT 10.0; Win64; x64; rv:124.0) Gecko/20100101 Firefox/124.0" etag="geP6YR32BFrjd5pnZVNX" version="24.2.2" type="github">
  <diagram id="kwndpxM6aQohwFW0s9ph" name="第 1 页">
    <mxGraphModel dx="5371" dy="2811" grid="1" gridSize="10" guides="1" tooltips="1" connect="1" arrows="1" fold="1" page="0" pageScale="1" pageWidth="827" pageHeight="1169" background="none" math="0" shadow="0">
      <root>
        <mxCell id="0" />
        <mxCell id="1" parent="0" />
        <mxCell id="node9" value="&lt;p style=&quot;margin: 4px 0px 0px; font-size: 22px;&quot;&gt;&lt;b style=&quot;font-size: 22px;&quot;&gt;AddressController&lt;/b&gt;&lt;/p&gt;&lt;hr style=&quot;font-size: 22px;&quot;&gt;" style="verticalAlign=top;align=left;overflow=fill;fontSize=22;fontFamily=Helvetica;html=1;rounded=0;shadow=0;comic=0;labelBackgroundColor=none;strokeWidth=1;flipV=1;arcSize=20;" parent="1" vertex="1">
          <mxGeometry x="-1340" y="219.25" width="186" height="32" as="geometry" />
        </mxCell>
        <mxCell id="node5" value="&lt;p style=&quot;margin: 4px 0px 0px; font-size: 22px;&quot;&gt;&lt;b style=&quot;font-size: 22px;&quot;&gt;AvatarController&lt;/b&gt;&lt;/p&gt;&lt;hr style=&quot;font-size: 22px;&quot;&gt;" style="verticalAlign=top;align=left;overflow=fill;fontSize=22;fontFamily=Helvetica;html=1;rounded=0;shadow=0;comic=0;labelBackgroundColor=none;strokeWidth=1;flipV=1;arcSize=20;" parent="1" vertex="1">
          <mxGeometry x="-1340" y="44.25" width="175" height="32" as="geometry" />
        </mxCell>
        <mxCell id="node1" value="&lt;p style=&quot;margin: 4px 0px 0px; font-size: 22px;&quot;&gt;&lt;b style=&quot;font-size: 22px;&quot;&gt;CarouselController&lt;/b&gt;&lt;/p&gt;&lt;hr style=&quot;font-size: 22px;&quot;&gt;" style="verticalAlign=top;align=left;overflow=fill;fontSize=22;fontFamily=Helvetica;html=1;rounded=0;shadow=0;comic=0;labelBackgroundColor=none;strokeWidth=1;flipV=1;arcSize=20;" parent="1" vertex="1">
          <mxGeometry x="-1340" y="339.25" width="192" height="32" as="geometry" />
        </mxCell>
        <mxCell id="node8" value="&lt;p style=&quot;margin: 4px 0px 0px; font-size: 22px;&quot;&gt;&lt;b style=&quot;font-size: 22px;&quot;&gt;CartController&lt;/b&gt;&lt;/p&gt;&lt;hr style=&quot;font-size: 22px;&quot;&gt;" style="verticalAlign=top;align=left;overflow=fill;fontSize=22;fontFamily=Helvetica;html=1;rounded=0;shadow=0;comic=0;labelBackgroundColor=none;strokeWidth=1;flipV=1;arcSize=20;" parent="1" vertex="1">
          <mxGeometry x="-1340" y="-126.25" width="158" height="32" as="geometry" />
        </mxCell>
        <mxCell id="node7" value="&lt;p style=&quot;margin: 4px 0px 0px; font-size: 22px;&quot;&gt;&lt;b style=&quot;font-size: 22px;&quot;&gt;CategoryController&lt;/b&gt;&lt;/p&gt;&lt;hr style=&quot;font-size: 22px;&quot;&gt;" style="verticalAlign=top;align=left;overflow=fill;fontSize=22;fontFamily=Helvetica;html=1;rounded=0;shadow=0;comic=0;labelBackgroundColor=none;strokeWidth=1;flipV=1;arcSize=20;" parent="1" vertex="1">
          <mxGeometry x="-1340" y="401.25" width="195" height="32" as="geometry" />
        </mxCell>
        <mxCell id="node2" value="&lt;p style=&quot;margin: 4px 0px 0px; font-size: 22px;&quot;&gt;&lt;b style=&quot;font-size: 22px;&quot;&gt;CommentController&lt;/b&gt;&lt;/p&gt;&lt;hr style=&quot;font-size: 22px;&quot;&gt;" style="verticalAlign=top;align=left;overflow=fill;fontSize=22;fontFamily=Helvetica;html=1;rounded=0;shadow=0;comic=0;labelBackgroundColor=none;strokeWidth=1;flipV=1;arcSize=20;" parent="1" vertex="1">
          <mxGeometry x="-1340" y="581.25" width="202" height="32" as="geometry" />
        </mxCell>
        <mxCell id="node6" value="&lt;p style=&quot;margin: 4px 0px 0px; font-size: 22px;&quot;&gt;&lt;b style=&quot;font-size: 22px;&quot;&gt;FileController&lt;/b&gt;&lt;/p&gt;&lt;hr style=&quot;font-size: 22px;&quot;&gt;" style="verticalAlign=top;align=left;overflow=fill;fontSize=22;fontFamily=Helvetica;html=1;rounded=0;shadow=0;comic=0;labelBackgroundColor=none;strokeWidth=1;flipV=1;arcSize=20;" parent="1" vertex="1">
          <mxGeometry x="-1340" y="521.25" width="152" height="32" as="geometry" />
        </mxCell>
        <mxCell id="node4" value="&lt;p style=&quot;margin: 4px 0px 0px; font-size: 22px;&quot;&gt;&lt;b style=&quot;font-size: 22px;&quot;&gt;GoodController&lt;/b&gt;&lt;/p&gt;&lt;hr style=&quot;font-size: 22px;&quot;&gt;" style="verticalAlign=top;align=left;overflow=fill;fontSize=22;fontFamily=Helvetica;html=1;rounded=0;shadow=0;comic=0;labelBackgroundColor=none;strokeWidth=1;flipV=1;arcSize=20;" parent="1" vertex="1">
          <mxGeometry x="-1340" y="-69.75" width="168" height="32" as="geometry" />
        </mxCell>
        <mxCell id="node12" value="&lt;p style=&quot;margin: 4px 0px 0px; font-size: 22px;&quot;&gt;&lt;b style=&quot;font-size: 22px;&quot;&gt;IconController&lt;/b&gt;&lt;/p&gt;&lt;hr style=&quot;font-size: 22px;&quot;&gt;" style="verticalAlign=top;align=left;overflow=fill;fontSize=22;fontFamily=Helvetica;html=1;rounded=0;shadow=0;comic=0;labelBackgroundColor=none;strokeWidth=1;flipV=1;arcSize=20;" parent="1" vertex="1">
          <mxGeometry x="-1340" y="-9.75" width="159" height="32" as="geometry" />
        </mxCell>
        <mxCell id="node10" value="&lt;p style=&quot;margin: 4px 0px 0px; font-size: 22px;&quot;&gt;&lt;b style=&quot;font-size: 22px;&quot;&gt;IncomeController&lt;/b&gt;&lt;/p&gt;&lt;hr style=&quot;font-size: 22px;&quot;&gt;" style="verticalAlign=top;align=left;overflow=fill;fontSize=22;fontFamily=Helvetica;html=1;rounded=0;shadow=0;comic=0;labelBackgroundColor=none;strokeWidth=1;flipV=1;arcSize=20;" parent="1" vertex="1">
          <mxGeometry x="-1340" y="99.25" width="183" height="32" as="geometry" />
        </mxCell>
        <mxCell id="node3" value="&lt;p style=&quot;margin: 4px 0px 0px; font-size: 22px;&quot;&gt;&lt;b style=&quot;font-size: 22px;&quot;&gt;OrderController&lt;/b&gt;&lt;/p&gt;&lt;hr style=&quot;font-size: 22px;&quot;&gt;" style="verticalAlign=top;align=left;overflow=fill;fontSize=22;fontFamily=Helvetica;html=1;rounded=0;shadow=0;comic=0;labelBackgroundColor=none;strokeWidth=1;flipV=1;arcSize=20;" parent="1" vertex="1">
          <mxGeometry x="-1340" y="159.25" width="170" height="32" as="geometry" />
        </mxCell>
        <mxCell id="node0" value="&lt;p style=&quot;margin: 4px 0px 0px; font-size: 22px;&quot;&gt;&lt;b style=&quot;font-size: 22px;&quot;&gt;RoleController&lt;/b&gt;&lt;/p&gt;&lt;hr style=&quot;font-size: 22px;&quot;&gt;" style="verticalAlign=top;align=left;overflow=fill;fontSize=22;fontFamily=Helvetica;html=1;rounded=0;shadow=0;comic=0;labelBackgroundColor=none;strokeWidth=1;flipV=1;arcSize=20;" parent="1" vertex="1">
          <mxGeometry x="-1340" y="279.25" width="159" height="32" as="geometry" />
        </mxCell>
        <mxCell id="node11" value="&lt;p style=&quot;margin: 4px 0px 0px; font-size: 22px;&quot;&gt;&lt;b style=&quot;font-size: 22px;&quot;&gt;UserController&lt;/b&gt;&lt;/p&gt;&lt;hr style=&quot;font-size: 22px;&quot;&gt;" style="verticalAlign=top;align=left;overflow=fill;fontSize=22;fontFamily=Helvetica;html=1;rounded=0;shadow=0;comic=0;labelBackgroundColor=none;strokeWidth=1;flipV=1;arcSize=20;" parent="1" vertex="1">
          <mxGeometry x="-1340" y="461.25" width="160" height="32" as="geometry" />
        </mxCell>
        <mxCell id="ARKG5BeF98pR6dy3IUAX-29" value="&lt;p style=&quot;margin: 4px 0px 0px; font-size: 22px;&quot;&gt;&lt;b style=&quot;font-size: 22px;&quot;&gt;AddressService&lt;/b&gt;&lt;/p&gt;&lt;hr style=&quot;font-size: 22px;&quot;&gt;" style="verticalAlign=top;align=left;overflow=fill;fontSize=22;fontFamily=Helvetica;html=1;rounded=0;shadow=0;comic=0;labelBackgroundColor=none;strokeWidth=1;spacing=2;arcSize=20;" parent="1" vertex="1">
          <mxGeometry x="-690" y="821" width="163" height="32" as="geometry" />
        </mxCell>
        <mxCell id="ARKG5BeF98pR6dy3IUAX-30" value="&lt;p style=&quot;margin: 4px 0px 0px; font-size: 22px;&quot;&gt;&lt;b style=&quot;font-size: 22px;&quot;&gt;AuthorizeService&lt;/b&gt;&lt;/p&gt;&lt;hr style=&quot;font-size: 22px;&quot;&gt;" style="verticalAlign=top;align=left;overflow=fill;fontSize=22;fontFamily=Helvetica;html=1;rounded=0;shadow=0;comic=0;labelBackgroundColor=none;strokeWidth=1;spacing=2;arcSize=20;" parent="1" vertex="1">
          <mxGeometry x="-440" y="751" width="177" height="32" as="geometry" />
        </mxCell>
        <mxCell id="ARKG5BeF98pR6dy3IUAX-31" value="&lt;p style=&quot;margin: 4px 0px 0px; font-size: 22px;&quot;&gt;&lt;b style=&quot;font-size: 22px;&quot;&gt;AvatarService&lt;/b&gt;&lt;/p&gt;&lt;hr style=&quot;font-size: 22px;&quot;&gt;" style="verticalAlign=top;align=left;overflow=fill;fontSize=22;fontFamily=Helvetica;html=1;rounded=0;shadow=0;comic=0;labelBackgroundColor=none;strokeWidth=1;spacing=2;arcSize=20;" parent="1" vertex="1">
          <mxGeometry x="-440" y="821" width="152" height="32" as="geometry" />
        </mxCell>
        <mxCell id="ARKG5BeF98pR6dy3IUAX-32" value="&lt;p style=&quot;margin: 4px 0px 0px; font-size: 22px;&quot;&gt;&lt;b style=&quot;font-size: 22px;&quot;&gt;CarouselService&lt;/b&gt;&lt;/p&gt;&lt;hr style=&quot;font-size: 22px;&quot;&gt;" style="verticalAlign=top;align=left;overflow=fill;fontSize=22;fontFamily=Helvetica;html=1;rounded=0;shadow=0;comic=0;labelBackgroundColor=none;strokeWidth=1;spacing=2;arcSize=20;" parent="1" vertex="1">
          <mxGeometry x="-690" y="890" width="169" height="32" as="geometry" />
        </mxCell>
        <mxCell id="ARKG5BeF98pR6dy3IUAX-33" value="&lt;p style=&quot;margin: 4px 0px 0px; font-size: 22px;&quot;&gt;&lt;b style=&quot;font-size: 22px;&quot;&gt;CartService&lt;/b&gt;&lt;/p&gt;&lt;hr style=&quot;font-size: 22px;&quot;&gt;" style="verticalAlign=top;align=left;overflow=fill;fontSize=22;fontFamily=Helvetica;html=1;rounded=0;shadow=0;comic=0;labelBackgroundColor=none;strokeWidth=1;spacing=2;arcSize=20;" parent="1" vertex="1">
          <mxGeometry x="-690" y="613" width="135" height="32" as="geometry" />
        </mxCell>
        <mxCell id="ARKG5BeF98pR6dy3IUAX-34" value="&lt;p style=&quot;margin: 4px 0px 0px; font-size: 22px;&quot;&gt;&lt;b style=&quot;font-size: 22px;&quot;&gt;CategoryService&lt;/b&gt;&lt;/p&gt;&lt;hr style=&quot;font-size: 22px;&quot;&gt;" style="verticalAlign=top;align=left;overflow=fill;fontSize=22;fontFamily=Helvetica;html=1;rounded=0;shadow=0;comic=0;labelBackgroundColor=none;strokeWidth=1;spacing=2;arcSize=20;" parent="1" vertex="1">
          <mxGeometry x="-440" y="613" width="172" height="32" as="geometry" />
        </mxCell>
        <mxCell id="ARKG5BeF98pR6dy3IUAX-35" value="&lt;p style=&quot;margin: 4px 0px 0px; font-size: 22px;&quot;&gt;&lt;b style=&quot;font-size: 22px;&quot;&gt;FileService&lt;/b&gt;&lt;/p&gt;&lt;hr style=&quot;font-size: 22px;&quot;&gt;" style="verticalAlign=top;align=left;overflow=fill;fontSize=22;fontFamily=Helvetica;html=1;rounded=0;shadow=0;comic=0;labelBackgroundColor=none;strokeWidth=1;spacing=2;arcSize=20;" parent="1" vertex="1">
          <mxGeometry x="-690" y="544" width="129" height="32" as="geometry" />
        </mxCell>
        <mxCell id="ARKG5BeF98pR6dy3IUAX-36" value="&lt;p style=&quot;margin: 4px 0px 0px; font-size: 22px;&quot;&gt;&lt;b style=&quot;font-size: 22px;&quot;&gt;GoodService&lt;/b&gt;&lt;/p&gt;&lt;hr style=&quot;font-size: 22px;&quot;&gt;" style="verticalAlign=top;align=left;overflow=fill;fontSize=22;fontFamily=Helvetica;html=1;rounded=0;shadow=0;comic=0;labelBackgroundColor=none;strokeWidth=1;spacing=2;arcSize=20;" parent="1" vertex="1">
          <mxGeometry x="-690" y="752" width="145" height="32" as="geometry" />
        </mxCell>
        <mxCell id="ARKG5BeF98pR6dy3IUAX-37" value="&lt;p style=&quot;margin: 4px 0px 0px; font-size: 22px;&quot;&gt;&lt;b style=&quot;font-size: 22px;&quot;&gt;IconService&lt;/b&gt;&lt;/p&gt;&lt;hr style=&quot;font-size: 22px;&quot;&gt;" style="verticalAlign=top;align=left;overflow=fill;fontSize=22;fontFamily=Helvetica;html=1;rounded=0;shadow=0;comic=0;labelBackgroundColor=none;strokeWidth=1;spacing=2;arcSize=20;" parent="1" vertex="1">
          <mxGeometry x="-440" y="890" width="136" height="32" as="geometry" />
        </mxCell>
        <mxCell id="ARKG5BeF98pR6dy3IUAX-38" value="&lt;p style=&quot;margin: 4px 0px 0px; font-size: 22px;&quot;&gt;&lt;b style=&quot;font-size: 22px;&quot;&gt;IncomeService&lt;/b&gt;&lt;/p&gt;&lt;hr style=&quot;font-size: 22px;&quot;&gt;" style="verticalAlign=top;align=left;overflow=fill;fontSize=22;fontFamily=Helvetica;html=1;rounded=0;shadow=0;comic=0;labelBackgroundColor=none;strokeWidth=1;spacing=2;arcSize=20;" parent="1" vertex="1">
          <mxGeometry x="-440" y="682" width="160" height="32" as="geometry" />
        </mxCell>
        <mxCell id="ARKG5BeF98pR6dy3IUAX-39" value="&lt;p style=&quot;margin: 4px 0px 0px; font-size: 22px;&quot;&gt;&lt;b style=&quot;font-size: 22px;&quot;&gt;OrderGoodsService&lt;/b&gt;&lt;/p&gt;&lt;hr style=&quot;font-size: 22px;&quot;&gt;" style="verticalAlign=top;align=left;overflow=fill;fontSize=22;fontFamily=Helvetica;html=1;rounded=0;shadow=0;comic=0;labelBackgroundColor=none;strokeWidth=1;spacing=2;arcSize=20;" parent="1" vertex="1">
          <mxGeometry x="-440" y="959" width="196" height="32" as="geometry" />
        </mxCell>
        <mxCell id="ARKG5BeF98pR6dy3IUAX-40" value="&lt;p style=&quot;margin: 4px 0px 0px; font-size: 22px;&quot;&gt;&lt;b style=&quot;font-size: 22px;&quot;&gt;OrderService&lt;/b&gt;&lt;/p&gt;&lt;hr style=&quot;font-size: 22px;&quot;&gt;" style="verticalAlign=top;align=left;overflow=fill;fontSize=22;fontFamily=Helvetica;html=1;rounded=0;shadow=0;comic=0;labelBackgroundColor=none;strokeWidth=1;spacing=2;arcSize=20;" parent="1" vertex="1">
          <mxGeometry x="-440" y="544" width="147" height="32" as="geometry" />
        </mxCell>
        <mxCell id="ARKG5BeF98pR6dy3IUAX-41" value="&lt;p style=&quot;margin: 4px 0px 0px; font-size: 22px;&quot;&gt;&lt;b style=&quot;font-size: 22px;&quot;&gt;StandardService&lt;/b&gt;&lt;/p&gt;&lt;hr style=&quot;font-size: 22px;&quot;&gt;" style="verticalAlign=top;align=left;overflow=fill;fontSize=22;fontFamily=Helvetica;html=1;rounded=0;shadow=0;comic=0;labelBackgroundColor=none;strokeWidth=1;spacing=2;arcSize=20;" parent="1" vertex="1">
          <mxGeometry x="-690" y="959" width="172" height="32" as="geometry" />
        </mxCell>
        <mxCell id="ARKG5BeF98pR6dy3IUAX-42" value="&lt;p style=&quot;margin: 4px 0px 0px; font-size: 22px;&quot;&gt;&lt;b style=&quot;font-size: 22px;&quot;&gt;UserService&lt;/b&gt;&lt;/p&gt;&lt;hr style=&quot;font-size: 22px;&quot;&gt;" style="verticalAlign=top;align=left;overflow=fill;fontSize=22;fontFamily=Helvetica;html=1;rounded=0;shadow=0;comic=0;labelBackgroundColor=none;strokeWidth=1;spacing=2;arcSize=20;" parent="1" vertex="1">
          <mxGeometry x="-690" y="682" width="137" height="32" as="geometry" />
        </mxCell>
        <mxCell id="ARKG5BeF98pR6dy3IUAX-44" value="&lt;div style=&quot;font-size: 22px;&quot;&gt;&lt;b style=&quot;font-size: 22px;&quot;&gt;RestBean&lt;/b&gt;&lt;/div&gt;" style="verticalAlign=middle;align=left;overflow=fill;fontSize=22;fontFamily=Helvetica;html=1;rounded=0;shadow=0;comic=0;labelBackgroundColor=none;strokeWidth=1;flipV=1;arcSize=20;" parent="1" vertex="1">
          <mxGeometry x="-690" y="-560" width="93" height="27" as="geometry" />
        </mxCell>
        <mxCell id="ARKG5BeF98pR6dy3IUAX-45" value="&lt;p style=&quot;margin: 4px 0px 0px; font-size: 22px;&quot;&gt;&lt;b style=&quot;font-size: 22px;&quot;&gt;TokenUtils&lt;/b&gt;&lt;/p&gt;&lt;hr style=&quot;font-size: 22px;&quot;&gt;" style="verticalAlign=top;align=left;overflow=fill;fontSize=22;fontFamily=Helvetica;html=1;rounded=0;shadow=0;comic=0;labelBackgroundColor=none;strokeWidth=1;flipV=1;arcSize=20;" parent="1" vertex="1">
          <mxGeometry x="-690" y="-485" width="130" height="32" as="geometry" />
        </mxCell>
        <mxCell id="ARKG5BeF98pR6dy3IUAX-47" value="&lt;p style=&quot;margin: 4px 0px 0px; font-size: 22px;&quot;&gt;&lt;b style=&quot;font-size: 22px;&quot;&gt;Address&lt;/b&gt;&lt;/p&gt;&lt;hr style=&quot;font-size: 22px;&quot;&gt;" style="verticalAlign=top;align=left;overflow=fill;fontSize=22;fontFamily=Helvetica;html=1;rounded=0;shadow=0;comic=0;labelBackgroundColor=none;strokeWidth=1;flipV=0;arcSize=20;" parent="1" vertex="1">
          <mxGeometry x="-490" y="217.5" width="110" height="32" as="geometry" />
        </mxCell>
        <mxCell id="ARKG5BeF98pR6dy3IUAX-48" value="&lt;p style=&quot;margin: 4px 0px 0px; font-size: 22px;&quot;&gt;&lt;b style=&quot;font-size: 22px;&quot;&gt;Avatar&lt;/b&gt;&lt;/p&gt;&lt;hr style=&quot;font-size: 22px;&quot;&gt;" style="verticalAlign=top;align=left;overflow=fill;fontSize=22;fontFamily=Helvetica;html=1;rounded=0;shadow=0;comic=0;labelBackgroundColor=none;strokeWidth=1;flipV=0;arcSize=20;" parent="1" vertex="1">
          <mxGeometry x="-690" y="94.5" width="99" height="32" as="geometry" />
        </mxCell>
        <mxCell id="ARKG5BeF98pR6dy3IUAX-49" value="&lt;p style=&quot;margin: 4px 0px 0px; font-size: 22px;&quot;&gt;&lt;b style=&quot;font-size: 22px;&quot;&gt;Carousel&lt;/b&gt;&lt;/p&gt;&lt;hr style=&quot;font-size: 22px;&quot;&gt;" style="verticalAlign=top;align=left;overflow=fill;fontSize=22;fontFamily=Helvetica;html=1;rounded=0;shadow=0;comic=0;labelBackgroundColor=none;strokeWidth=1;flipV=0;arcSize=20;" parent="1" vertex="1">
          <mxGeometry x="-690" y="-212.5" width="116" height="32" as="geometry" />
        </mxCell>
        <mxCell id="ARKG5BeF98pR6dy3IUAX-50" value="&lt;p style=&quot;margin: 4px 0px 0px; font-size: 22px;&quot;&gt;&lt;b style=&quot;font-size: 22px;&quot;&gt;Cart&lt;/b&gt;&lt;/p&gt;&lt;hr style=&quot;font-size: 22px;&quot;&gt;" style="verticalAlign=top;align=left;overflow=fill;fontSize=22;fontFamily=Helvetica;html=1;rounded=0;shadow=0;comic=0;labelBackgroundColor=none;strokeWidth=1;flipV=0;arcSize=20;" parent="1" vertex="1">
          <mxGeometry x="-490" y="-212.5" width="82" height="32" as="geometry" />
        </mxCell>
        <mxCell id="ARKG5BeF98pR6dy3IUAX-51" value="&lt;p style=&quot;margin: 4px 0px 0px; font-size: 22px;&quot;&gt;&lt;b style=&quot;font-size: 22px;&quot;&gt;Category&lt;/b&gt;&lt;/p&gt;&lt;hr style=&quot;font-size: 22px;&quot;&gt;" style="verticalAlign=top;align=left;overflow=fill;fontSize=22;fontFamily=Helvetica;html=1;rounded=0;shadow=0;comic=0;labelBackgroundColor=none;strokeWidth=1;flipV=0;arcSize=20;" parent="1" vertex="1">
          <mxGeometry x="-490" y="155.5" width="119" height="32" as="geometry" />
        </mxCell>
        <mxCell id="ARKG5BeF98pR6dy3IUAX-52" value="&lt;p style=&quot;margin: 4px 0px 0px; font-size: 22px;&quot;&gt;&lt;b style=&quot;font-size: 22px;&quot;&gt;Comment&lt;/b&gt;&lt;/p&gt;&lt;hr style=&quot;font-size: 22px;&quot;&gt;" style="verticalAlign=top;align=left;overflow=fill;fontSize=22;fontFamily=Helvetica;html=1;rounded=0;shadow=0;comic=0;labelBackgroundColor=none;strokeWidth=1;flipV=0;arcSize=20;" parent="1" vertex="1">
          <mxGeometry x="-690" y="217.5" width="126" height="32" as="geometry" />
        </mxCell>
        <mxCell id="ARKG5BeF98pR6dy3IUAX-53" value="&lt;p style=&quot;margin: 4px 0px 0px; font-size: 22px;&quot;&gt;&lt;b style=&quot;font-size: 22px;&quot;&gt;Good&lt;/b&gt;&lt;/p&gt;&lt;hr style=&quot;font-size: 22px;&quot;&gt;" style="verticalAlign=top;align=left;overflow=fill;fontSize=22;fontFamily=Helvetica;html=1;rounded=0;shadow=0;comic=0;labelBackgroundColor=none;strokeWidth=1;flipV=0;arcSize=20;" parent="1" vertex="1">
          <mxGeometry x="-690" y="-151.5" width="92" height="32" as="geometry" />
        </mxCell>
        <mxCell id="ARKG5BeF98pR6dy3IUAX-54" value="&lt;p style=&quot;margin: 4px 0px 0px; font-size: 22px;&quot;&gt;&lt;b style=&quot;font-size: 22px;&quot;&gt;GoodStandard&lt;/b&gt;&lt;/p&gt;&lt;hr style=&quot;font-size: 22px;&quot;&gt;" style="verticalAlign=top;align=left;overflow=fill;fontSize=22;fontFamily=Helvetica;html=1;rounded=0;shadow=0;comic=0;labelBackgroundColor=none;strokeWidth=1;flipV=0;arcSize=20;" parent="1" vertex="1">
          <mxGeometry x="-690" y="278.5" width="161" height="32" as="geometry" />
        </mxCell>
        <mxCell id="ARKG5BeF98pR6dy3IUAX-55" value="&lt;p style=&quot;margin: 4px 0px 0px; font-size: 22px;&quot;&gt;&lt;b style=&quot;font-size: 22px;&quot;&gt;Icon&lt;/b&gt;&lt;/p&gt;&lt;hr style=&quot;font-size: 22px;&quot;&gt;" style="verticalAlign=top;align=left;overflow=fill;fontSize=22;fontFamily=Helvetica;html=1;rounded=0;shadow=0;comic=0;labelBackgroundColor=none;strokeWidth=1;flipV=0;arcSize=20;" parent="1" vertex="1">
          <mxGeometry x="-690" y="-89.5" width="83" height="32" as="geometry" />
        </mxCell>
        <mxCell id="ARKG5BeF98pR6dy3IUAX-56" value="&lt;p style=&quot;margin: 4px 0px 0px; font-size: 22px;&quot;&gt;&lt;b style=&quot;font-size: 22px;&quot;&gt;IconCategory&lt;/b&gt;&lt;/p&gt;&lt;hr style=&quot;font-size: 22px;&quot;&gt;" style="verticalAlign=top;align=left;overflow=fill;fontSize=22;fontFamily=Helvetica;html=1;rounded=0;shadow=0;comic=0;labelBackgroundColor=none;strokeWidth=1;flipV=0;arcSize=20;" parent="1" vertex="1">
          <mxGeometry x="-490" y="-28.5" width="152" height="32" as="geometry" />
        </mxCell>
        <mxCell id="ARKG5BeF98pR6dy3IUAX-57" value="&lt;p style=&quot;margin: 4px 0px 0px; font-size: 22px;&quot;&gt;&lt;b style=&quot;font-size: 22px;&quot;&gt;Order&lt;/b&gt;&lt;/p&gt;&lt;hr style=&quot;font-size: 22px;&quot;&gt;" style="verticalAlign=top;align=left;overflow=fill;fontSize=22;fontFamily=Helvetica;html=1;rounded=0;shadow=0;comic=0;labelBackgroundColor=none;strokeWidth=1;flipV=0;arcSize=20;" parent="1" vertex="1">
          <mxGeometry x="-690" y="155.5" width="94" height="32" as="geometry" />
        </mxCell>
        <mxCell id="ARKG5BeF98pR6dy3IUAX-58" value="&lt;p style=&quot;margin: 4px 0px 0px; font-size: 22px;&quot;&gt;&lt;b style=&quot;font-size: 22px;&quot;&gt;OrderGoods&lt;/b&gt;&lt;/p&gt;&lt;hr style=&quot;font-size: 22px;&quot;&gt;" style="verticalAlign=top;align=left;overflow=fill;fontSize=22;fontFamily=Helvetica;html=1;rounded=0;shadow=0;comic=0;labelBackgroundColor=none;strokeWidth=1;flipV=0;arcSize=20;" parent="1" vertex="1">
          <mxGeometry x="-490" y="-151.5" width="143" height="32" as="geometry" />
        </mxCell>
        <mxCell id="ARKG5BeF98pR6dy3IUAX-59" value="&lt;p style=&quot;margin: 4px 0px 0px; font-size: 22px;&quot;&gt;&lt;b style=&quot;font-size: 22px;&quot;&gt;OrderItem&lt;/b&gt;&lt;/p&gt;&lt;hr style=&quot;font-size: 22px;&quot;&gt;" style="verticalAlign=top;align=left;overflow=fill;fontSize=22;fontFamily=Helvetica;html=1;rounded=0;shadow=0;comic=0;labelBackgroundColor=none;strokeWidth=1;flipV=0;arcSize=20;" parent="1" vertex="1">
          <mxGeometry x="-490" y="-89.5" width="129" height="32" as="geometry" />
        </mxCell>
        <mxCell id="ARKG5BeF98pR6dy3IUAX-60" value="&lt;p style=&quot;margin: 4px 0px 0px; font-size: 22px;&quot;&gt;&lt;b style=&quot;font-size: 22px;&quot;&gt;RestBean&lt;/b&gt;&lt;/p&gt;&lt;hr style=&quot;font-size: 22px;&quot;&gt;" style="verticalAlign=top;align=left;overflow=fill;fontSize=22;fontFamily=Helvetica;html=1;rounded=0;shadow=0;comic=0;labelBackgroundColor=none;strokeWidth=1;flipV=0;arcSize=20;" parent="1" vertex="1">
          <mxGeometry x="-490" y="94.5" width="153" height="32" as="geometry" />
        </mxCell>
        <mxCell id="ARKG5BeF98pR6dy3IUAX-61" value="&lt;p style=&quot;margin: 4px 0px 0px; font-size: 22px;&quot;&gt;&lt;b style=&quot;font-size: 22px;&quot;&gt;Standard&lt;/b&gt;&lt;/p&gt;&lt;hr style=&quot;font-size: 22px;&quot;&gt;" style="verticalAlign=top;align=left;overflow=fill;fontSize=22;fontFamily=Helvetica;html=1;rounded=0;shadow=0;comic=0;labelBackgroundColor=none;strokeWidth=1;flipV=0;arcSize=20;" parent="1" vertex="1">
          <mxGeometry x="-490" y="33.5" width="119" height="32" as="geometry" />
        </mxCell>
        <mxCell id="ARKG5BeF98pR6dy3IUAX-62" value="&lt;p style=&quot;margin: 4px 0px 0px; font-size: 22px;&quot;&gt;&lt;b style=&quot;font-size: 22px;&quot;&gt;SysFile&lt;/b&gt;&lt;/p&gt;&lt;hr style=&quot;font-size: 22px;&quot;&gt;" style="verticalAlign=top;align=left;overflow=fill;fontSize=22;fontFamily=Helvetica;html=1;rounded=0;shadow=0;comic=0;labelBackgroundColor=none;strokeWidth=1;flipV=0;arcSize=20;" parent="1" vertex="1">
          <mxGeometry x="-690" y="33.5" width="100" height="32" as="geometry" />
        </mxCell>
        <mxCell id="ARKG5BeF98pR6dy3IUAX-63" value="&lt;p style=&quot;margin: 4px 0px 0px; font-size: 22px;&quot;&gt;&lt;b style=&quot;font-size: 22px;&quot;&gt;User&lt;/b&gt;&lt;/p&gt;&lt;hr style=&quot;font-size: 22px;&quot;&gt;" style="verticalAlign=top;align=left;overflow=fill;fontSize=22;fontFamily=Helvetica;html=1;rounded=0;shadow=0;comic=0;labelBackgroundColor=none;strokeWidth=1;flipV=0;arcSize=20;" parent="1" vertex="1">
          <mxGeometry x="-690" y="-28.5" width="84" height="32" as="geometry" />
        </mxCell>
        <mxCell id="JV2kTO9e9_lDRvMlxu_j-28" style="edgeStyle=orthogonalEdgeStyle;rounded=0;orthogonalLoop=1;jettySize=auto;html=1;exitX=1;exitY=0.5;exitDx=0;exitDy=0;dashed=1;strokeWidth=3;fontSize=22;arcSize=20;shadow=0;" edge="1" parent="1" source="JV2kTO9e9_lDRvMlxu_j-1" target="JV2kTO9e9_lDRvMlxu_j-7">
          <mxGeometry relative="1" as="geometry">
            <mxPoint x="-860" y="-550" as="targetPoint" />
            <Array as="points">
              <mxPoint x="-880" y="240" />
              <mxPoint x="-880" y="-512" />
            </Array>
          </mxGeometry>
        </mxCell>
        <mxCell id="JV2kTO9e9_lDRvMlxu_j-30" style="edgeStyle=orthogonalEdgeStyle;rounded=0;orthogonalLoop=1;jettySize=auto;html=1;exitX=1;exitY=0.5;exitDx=0;exitDy=0;entryX=0;entryY=0.5;entryDx=0;entryDy=0;dashed=1;strokeWidth=3;fontSize=22;arcSize=20;shadow=0;" edge="1" parent="1" source="JV2kTO9e9_lDRvMlxu_j-1" target="JV2kTO9e9_lDRvMlxu_j-5">
          <mxGeometry relative="1" as="geometry">
            <Array as="points">
              <mxPoint x="-880" y="240" />
              <mxPoint x="-880" y="57" />
            </Array>
          </mxGeometry>
        </mxCell>
        <mxCell id="JV2kTO9e9_lDRvMlxu_j-1" value="" style="rounded=0;whiteSpace=wrap;html=1;fillColor=none;fontSize=22;arcSize=20;shadow=0;" vertex="1" parent="1">
          <mxGeometry x="-1390" y="-160" width="290" height="800" as="geometry" />
        </mxCell>
        <mxCell id="JV2kTO9e9_lDRvMlxu_j-2" value="&lt;div style=&quot;font-size: 22px;&quot; align=&quot;left&quot;&gt;&lt;font style=&quot;font-size: 22px;&quot;&gt;Controller&lt;/font&gt;&lt;/div&gt;" style="rounded=0;whiteSpace=wrap;html=1;align=left;fontSize=22;arcSize=20;shadow=0;" vertex="1" parent="1">
          <mxGeometry x="-1390" y="-226" width="130" height="66" as="geometry" />
        </mxCell>
        <mxCell id="JV2kTO9e9_lDRvMlxu_j-32" style="edgeStyle=orthogonalEdgeStyle;rounded=0;orthogonalLoop=1;jettySize=auto;html=1;exitX=1;exitY=0.5;exitDx=0;exitDy=0;entryX=0;entryY=0.5;entryDx=0;entryDy=0;dashed=1;strokeWidth=3;fontSize=22;arcSize=20;shadow=0;" edge="1" parent="1" source="JV2kTO9e9_lDRvMlxu_j-3" target="JV2kTO9e9_lDRvMlxu_j-24">
          <mxGeometry relative="1" as="geometry" />
        </mxCell>
        <mxCell id="JV2kTO9e9_lDRvMlxu_j-3" value="" style="rounded=0;whiteSpace=wrap;html=1;fillColor=none;fontSize=22;arcSize=20;shadow=0;" vertex="1" parent="1">
          <mxGeometry x="-710" y="506" width="500" height="564" as="geometry" />
        </mxCell>
        <mxCell id="JV2kTO9e9_lDRvMlxu_j-4" value="&lt;font style=&quot;font-size: 22px;&quot;&gt;Service&lt;/font&gt;" style="rounded=0;whiteSpace=wrap;html=1;align=left;fontSize=22;arcSize=20;shadow=0;" vertex="1" parent="1">
          <mxGeometry x="-710" y="440" width="130" height="66" as="geometry" />
        </mxCell>
        <mxCell id="JV2kTO9e9_lDRvMlxu_j-5" value="" style="rounded=0;whiteSpace=wrap;html=1;fillColor=none;fontSize=22;arcSize=20;shadow=0;" vertex="1" parent="1">
          <mxGeometry x="-710" y="-224.75" width="500" height="564" as="geometry" />
        </mxCell>
        <mxCell id="JV2kTO9e9_lDRvMlxu_j-6" value="&lt;font style=&quot;font-size: 22px;&quot;&gt;Entity&lt;/font&gt;" style="rounded=0;whiteSpace=wrap;html=1;align=left;fontSize=22;arcSize=20;shadow=0;" vertex="1" parent="1">
          <mxGeometry x="-710" y="-290.75" width="130" height="66" as="geometry" />
        </mxCell>
        <mxCell id="JV2kTO9e9_lDRvMlxu_j-7" value="" style="rounded=0;whiteSpace=wrap;html=1;fillColor=none;fontSize=22;arcSize=20;shadow=0;" vertex="1" parent="1">
          <mxGeometry x="-710" y="-604" width="200" height="184" as="geometry" />
        </mxCell>
        <mxCell id="JV2kTO9e9_lDRvMlxu_j-8" value="&lt;font style=&quot;font-size: 22px;&quot;&gt;Util&lt;/font&gt;" style="rounded=0;whiteSpace=wrap;html=1;align=left;fontSize=22;arcSize=20;shadow=0;" vertex="1" parent="1">
          <mxGeometry x="-710" y="-670" width="130" height="66" as="geometry" />
        </mxCell>
        <mxCell id="JV2kTO9e9_lDRvMlxu_j-9" value="&lt;p style=&quot;margin: 4px 0px 0px; text-align: center; font-size: 22px;&quot;&gt;&lt;b style=&quot;font-size: 22px;&quot;&gt;AddressMapper&lt;/b&gt;&lt;/p&gt;&lt;hr style=&quot;font-size: 22px;&quot;&gt;" style="verticalAlign=top;align=left;overflow=fill;fontSize=22;fontFamily=Helvetica;html=1;rounded=0;shadow=0;comic=0;labelBackgroundColor=none;strokeWidth=1;strokeColor=default;imageAspect=1;arcSize=20;" vertex="1" parent="1">
          <mxGeometry x="240" y="877" width="170" height="38" as="geometry" />
        </mxCell>
        <mxCell id="JV2kTO9e9_lDRvMlxu_j-10" value="&lt;p style=&quot;margin: 4px 0px 0px; text-align: center; font-size: 22px;&quot;&gt;&lt;b style=&quot;font-size: 22px;&quot;&gt;AvatarMapper&lt;/b&gt;&lt;/p&gt;&lt;hr style=&quot;font-size: 22px;&quot;&gt;" style="verticalAlign=top;align=left;overflow=fill;fontSize=22;fontFamily=Helvetica;html=1;rounded=0;shadow=0;comic=0;labelBackgroundColor=none;strokeWidth=1;strokeColor=default;imageAspect=1;arcSize=20;" vertex="1" parent="1">
          <mxGeometry x="240" y="734" width="159" height="38" as="geometry" />
        </mxCell>
        <mxCell id="JV2kTO9e9_lDRvMlxu_j-11" value="&lt;p style=&quot;margin: 4px 0px 0px; text-align: center; font-size: 22px;&quot;&gt;&lt;b style=&quot;font-size: 22px;&quot;&gt;CarouselMapper&lt;/b&gt;&lt;/p&gt;&lt;hr style=&quot;font-size: 22px;&quot;&gt;" style="verticalAlign=top;align=left;overflow=fill;fontSize=22;fontFamily=Helvetica;html=1;rounded=0;shadow=0;comic=0;labelBackgroundColor=none;strokeWidth=1;strokeColor=default;imageAspect=1;arcSize=20;" vertex="1" parent="1">
          <mxGeometry x="480" y="940" width="176" height="38" as="geometry" />
        </mxCell>
        <mxCell id="JV2kTO9e9_lDRvMlxu_j-12" value="&lt;p style=&quot;margin: 4px 0px 0px; text-align: center; font-size: 22px;&quot;&gt;&lt;b style=&quot;font-size: 22px;&quot;&gt;CartMapper&lt;/b&gt;&lt;/p&gt;&lt;hr style=&quot;font-size: 22px;&quot;&gt;" style="verticalAlign=top;align=left;overflow=fill;fontSize=22;fontFamily=Helvetica;html=1;rounded=0;shadow=0;comic=0;labelBackgroundColor=none;strokeWidth=1;strokeColor=default;imageAspect=1;arcSize=20;" vertex="1" parent="1">
          <mxGeometry x="240" y="663" width="142" height="38" as="geometry" />
        </mxCell>
        <mxCell id="JV2kTO9e9_lDRvMlxu_j-13" value="&lt;p style=&quot;margin: 4px 0px 0px; text-align: center; font-size: 22px;&quot;&gt;&lt;b style=&quot;font-size: 22px;&quot;&gt;CategoryMapper&lt;/b&gt;&lt;/p&gt;&lt;hr style=&quot;font-size: 22px;&quot;&gt;" style="verticalAlign=top;align=left;overflow=fill;fontSize=22;fontFamily=Helvetica;html=1;rounded=0;shadow=0;comic=0;labelBackgroundColor=none;strokeWidth=1;strokeColor=default;imageAspect=1;arcSize=20;" vertex="1" parent="1">
          <mxGeometry x="240" y="1020" width="179" height="38" as="geometry" />
        </mxCell>
        <mxCell id="JV2kTO9e9_lDRvMlxu_j-14" value="&lt;p style=&quot;margin: 4px 0px 0px; text-align: center; font-size: 22px;&quot;&gt;&lt;b style=&quot;font-size: 22px;&quot;&gt;CommentMapper&lt;/b&gt;&lt;/p&gt;&lt;hr style=&quot;font-size: 22px;&quot;&gt;" style="verticalAlign=top;align=left;overflow=fill;fontSize=22;fontFamily=Helvetica;html=1;rounded=0;shadow=0;comic=0;labelBackgroundColor=none;strokeWidth=1;strokeColor=default;imageAspect=1;arcSize=20;" vertex="1" parent="1">
          <mxGeometry x="480" y="520" width="186" height="32" as="geometry" />
        </mxCell>
        <mxCell id="JV2kTO9e9_lDRvMlxu_j-15" value="&lt;p style=&quot;margin: 4px 0px 0px; text-align: center; font-size: 22px;&quot;&gt;&lt;b style=&quot;font-size: 22px;&quot;&gt;FileMapper&lt;/b&gt;&lt;/p&gt;&lt;hr style=&quot;font-size: 22px;&quot;&gt;" style="verticalAlign=top;align=left;overflow=fill;fontSize=22;fontFamily=Helvetica;html=1;rounded=0;shadow=0;comic=0;labelBackgroundColor=none;strokeWidth=0;strokeColor=default;imageAspect=1;arcSize=20;" vertex="1" parent="1">
          <mxGeometry x="240" y="520" width="136" height="38" as="geometry" />
        </mxCell>
        <mxCell id="JV2kTO9e9_lDRvMlxu_j-16" value="&lt;p style=&quot;margin: 4px 0px 0px; text-align: center; font-size: 22px;&quot;&gt;&lt;b style=&quot;font-size: 22px;&quot;&gt;GoodMapper&lt;/b&gt;&lt;/p&gt;&lt;hr style=&quot;font-size: 22px;&quot;&gt;" style="verticalAlign=top;align=left;overflow=fill;fontSize=22;fontFamily=Helvetica;html=1;rounded=0;shadow=0;comic=0;labelBackgroundColor=none;strokeWidth=1;strokeColor=default;imageAspect=1;arcSize=20;" vertex="1" parent="1">
          <mxGeometry x="480" y="658" width="152" height="38" as="geometry" />
        </mxCell>
        <mxCell id="JV2kTO9e9_lDRvMlxu_j-17" value="&lt;p style=&quot;margin: 4px 0px 0px; text-align: center; font-size: 22px;&quot;&gt;&lt;b style=&quot;font-size: 22px;&quot;&gt;IconCategoryMapper&lt;/b&gt;&lt;/p&gt;&lt;hr style=&quot;font-size: 22px;&quot;&gt;" style="verticalAlign=top;align=left;overflow=fill;fontSize=22;fontFamily=Helvetica;html=1;rounded=0;shadow=0;comic=0;labelBackgroundColor=none;strokeWidth=1;strokeColor=default;imageAspect=1;arcSize=20;" vertex="1" parent="1">
          <mxGeometry x="480" y="869" width="212" height="38" as="geometry" />
        </mxCell>
        <mxCell id="JV2kTO9e9_lDRvMlxu_j-18" value="&lt;p style=&quot;margin: 4px 0px 0px; text-align: center; font-size: 22px;&quot;&gt;&lt;b style=&quot;font-size: 22px;&quot;&gt;IconMapper&lt;/b&gt;&lt;/p&gt;&lt;hr style=&quot;font-size: 22px;&quot;&gt;" style="verticalAlign=top;align=left;overflow=fill;fontSize=22;fontFamily=Helvetica;html=1;rounded=0;shadow=0;comic=0;labelBackgroundColor=none;strokeWidth=1;strokeColor=default;imageAspect=1;arcSize=20;" vertex="1" parent="1">
          <mxGeometry x="480" y="799" width="143" height="38" as="geometry" />
        </mxCell>
        <mxCell id="JV2kTO9e9_lDRvMlxu_j-19" value="&lt;p style=&quot;margin: 4px 0px 0px; text-align: center; font-size: 22px;&quot;&gt;&lt;b style=&quot;font-size: 22px;&quot;&gt;IncomeMapper&lt;/b&gt;&lt;/p&gt;&lt;hr style=&quot;font-size: 22px;&quot;&gt;" style="verticalAlign=top;align=left;overflow=fill;fontSize=22;fontFamily=Helvetica;html=1;rounded=0;shadow=0;comic=0;labelBackgroundColor=none;strokeWidth=1;strokeColor=default;imageAspect=1;arcSize=20;" vertex="1" parent="1">
          <mxGeometry x="480" y="587" width="167" height="38" as="geometry" />
        </mxCell>
        <mxCell id="JV2kTO9e9_lDRvMlxu_j-20" value="&lt;p style=&quot;margin: 4px 0px 0px; text-align: center; font-size: 22px;&quot;&gt;&lt;b style=&quot;font-size: 22px;&quot;&gt;OrderGoodsMapper&lt;/b&gt;&lt;/p&gt;&lt;hr style=&quot;font-size: 22px;&quot;&gt;" style="verticalAlign=top;align=left;overflow=fill;fontSize=22;fontFamily=Helvetica;html=1;rounded=0;shadow=0;comic=0;labelBackgroundColor=none;strokeWidth=1;strokeColor=default;imageAspect=1;arcSize=20;" vertex="1" parent="1">
          <mxGeometry x="480" y="728" width="203" height="38" as="geometry" />
        </mxCell>
        <mxCell id="JV2kTO9e9_lDRvMlxu_j-21" value="&lt;p style=&quot;margin: 4px 0px 0px; text-align: center; font-size: 22px;&quot;&gt;&lt;b style=&quot;font-size: 22px;&quot;&gt;OrderMapper&lt;/b&gt;&lt;/p&gt;&lt;hr style=&quot;font-size: 22px;&quot;&gt;" style="verticalAlign=top;align=left;overflow=fill;fontSize=22;fontFamily=Helvetica;html=1;rounded=0;shadow=0;comic=0;labelBackgroundColor=none;strokeWidth=1;strokeColor=default;imageAspect=1;arcSize=20;" vertex="1" parent="1">
          <mxGeometry x="240" y="806" width="154" height="38" as="geometry" />
        </mxCell>
        <mxCell id="JV2kTO9e9_lDRvMlxu_j-22" value="&lt;p style=&quot;margin: 4px 0px 0px; text-align: center; font-size: 22px;&quot;&gt;&lt;b style=&quot;font-size: 22px;&quot;&gt;StandardMapper&lt;/b&gt;&lt;/p&gt;&lt;hr style=&quot;font-size: 22px;&quot;&gt;" style="verticalAlign=top;align=left;overflow=fill;fontSize=22;fontFamily=Helvetica;html=1;rounded=0;shadow=0;comic=0;labelBackgroundColor=none;strokeWidth=1;strokeColor=default;imageAspect=1;arcSize=20;" vertex="1" parent="1">
          <mxGeometry x="240" y="949" width="179" height="38" as="geometry" />
        </mxCell>
        <mxCell id="JV2kTO9e9_lDRvMlxu_j-23" value="&lt;p style=&quot;margin: 4px 0px 0px; text-align: center; font-size: 22px;&quot;&gt;&lt;b style=&quot;font-size: 22px;&quot;&gt;UserMapper&lt;/b&gt;&lt;/p&gt;&lt;hr style=&quot;font-size: 22px;&quot;&gt;" style="verticalAlign=top;align=left;overflow=fill;fontSize=22;fontFamily=Helvetica;html=1;rounded=0;shadow=0;comic=0;labelBackgroundColor=none;strokeWidth=1;strokeColor=default;imageAspect=1;arcSize=20;" vertex="1" parent="1">
          <mxGeometry x="240" y="591" width="144" height="38" as="geometry" />
        </mxCell>
        <mxCell id="JV2kTO9e9_lDRvMlxu_j-24" value="" style="rounded=0;whiteSpace=wrap;html=1;fillColor=none;fontSize=22;arcSize=20;shadow=0;" vertex="1" parent="1">
          <mxGeometry x="200" y="506" width="500" height="564" as="geometry" />
        </mxCell>
        <mxCell id="JV2kTO9e9_lDRvMlxu_j-25" value="&lt;font style=&quot;font-size: 22px;&quot;&gt;Mapper&lt;/font&gt;" style="rounded=0;whiteSpace=wrap;html=1;align=left;fontSize=22;arcSize=20;shadow=0;" vertex="1" parent="1">
          <mxGeometry x="200" y="440" width="130" height="66" as="geometry" />
        </mxCell>
        <mxCell id="JV2kTO9e9_lDRvMlxu_j-27" value="CommentService" style="verticalAlign=top;align=left;overflow=fill;fontSize=22;fontFamily=Helvetica;html=1;rounded=0;shadow=0;comic=0;labelBackgroundColor=none;strokeWidth=1;spacing=2;arcSize=20;" vertex="1" parent="1">
          <mxGeometry x="-690" y="1026" width="172" height="32" as="geometry" />
        </mxCell>
        <mxCell id="JV2kTO9e9_lDRvMlxu_j-31" style="edgeStyle=orthogonalEdgeStyle;rounded=0;orthogonalLoop=1;jettySize=auto;html=1;exitX=1;exitY=0.5;exitDx=0;exitDy=0;entryX=0.004;entryY=0.619;entryDx=0;entryDy=0;entryPerimeter=0;dashed=1;strokeWidth=3;fontSize=22;arcSize=20;shadow=0;" edge="1" parent="1" source="JV2kTO9e9_lDRvMlxu_j-1" target="JV2kTO9e9_lDRvMlxu_j-3">
          <mxGeometry relative="1" as="geometry">
            <Array as="points">
              <mxPoint x="-880" y="240" />
              <mxPoint x="-880" y="855" />
            </Array>
          </mxGeometry>
        </mxCell>
      </root>
    </mxGraphModel>
  </diagram>
</mxfile>
